PathFileType	4	(X/Y/Z)	Patient4_TMGait_0pt4_03_right_44.trc.trc
DataRate	CameraRate	NumFrames	NumMarkers	Units	OrigDataRate	OrigDataStartFrame	OrigNumFrames
75.268817204301	75.268817204301	4	33	mm	75.268817204301	53	       141
Frame#	Time	Sacral			L.Shoulder			Chest			R.Shoulder			Neck			R.ASIS			L.ASIS			R.Thigh.Superior			R.Thigh.Lateral			R.Thigh.Inferior			R.Patella			L.Thigh.Superior			L.Thigh.Lateral			L.Thigh.Inferior			L.Patella			L.Shank.Superior			L.Shank.Lateral			L.Shank.Inferior			R.Shank.Superior			R.Shank.Lateral			R.Shank.Inferior			R.Heel			R.Midfoot.Superior			R.Midfoot.Lateral			R.Toe			L.Heel			L.Midfoot.Lateral			L.Midfoot.Superior			L.Toe			L.Elbow			L.Wrist			R.Elbow			R.Wrist			
		X1	Y1	Z1	X2	Y2	Z2	X3	Y3	Z3	X4	Y4	Z4	X5	Y5	Z5	X6	Y6	Z6	X7	Y7	Z7	X8	Y8	Z8	X9	Y9	Z9	X10	Y10	Z10	X11	Y11	Z11	X12	Y12	Z12	X13	Y13	Z13	X14	Y14	Z14	X15	Y15	Z15	X16	Y16	Z16	X17	Y17	Z17	X18	Y18	Z18	X19	Y19	Z19	X20	Y20	Z20	X21	Y21	Z21	X22	Y22	Z22	X23	Y23	Z23	X24	Y24	Z24	X25	Y25	Z25	X26	Y26	Z26	X27	Y27	Z27	X28	Y28	Z28	X29	Y29	Z29	X30	Y30	Z30	X31	Y31	Z31	X32	Y32	Z32	X33	Y33	Z33	

53	58.360857142857	943.705430539835	1008.781514509051	526.595388128132	1112.226850346065	1441.765706186414	346.669960601085	1229.365663791361	1368.031555931245	495.184555162800	1164.410183372341	1435.559523552445	679.216493942892	1108.005678291414	1499.008642211173	505.250286240968	1179.730112632171	944.037715338654	627.648095729874	1147.870056303502	969.917217699775	355.620552215912	1203.161058574145	739.407265926605	595.879460717655	1115.846776060836	633.670730866263	657.685317555810	1186.928457105546	578.295833318556	576.025720234126	1180.727011192870	492.911475954504	581.140889629831	1230.355324173317	786.050068814013	371.211968091266	1180.121270706835	660.278055629911	289.770598906089	1287.881039934322	600.471578718019	340.131414729680	1308.646941805580	523.418436249741	329.738415186614	1268.540053271281	448.813862432785	320.609047725658	1156.742797601653	352.792170110017	274.432773140827	1207.042732194266	227.932619079892	319.546280746984	1151.546489042779	404.810362501799	586.489332037503	1078.058299848221	300.596022683348	645.462319432716	1120.336658765321	206.968716082845	579.316681787239	986.844895470070	42.726325587287	542.018690816179	1156.830790342802	97.425144930632	581.897633776845	1069.124612796029	37.138439662287	618.794565573459	1276.909134419402	46.602666102894	610.771541616010	1071.634953155875	82.389326256292	362.390654539779	1134.164895748556	74.340572460744	274.052170877828	1226.349627526205	127.105617530469	291.453333306403	1341.773271754758	65.293264657556	244.634301019188	1019.622904181262	1099.852184910904	235.347377163034	1038.546488778454	839.711091887639	217.536070655646	1208.546712832562	1094.119473413753	809.273222820607	1413.420850798131	943.820506953657	758.754832190164	
54	58.374142857143	943.034551663087	1009.081526815479	527.908250818624	1111.563369850752	1441.468271357493	346.934947561746	1229.751082287101	1367.351060819644	494.459466265018	1166.593895263847	1435.190733877767	679.037905919986	1108.808552951577	1498.726463502948	505.387318731818	1179.616639514052	943.623359523351	627.337043066769	1146.121920055600	969.718104112482	355.470413680483	1201.303418970296	738.691185134586	595.352996461756	1113.698128908917	633.378593113023	657.726669862850	1183.722644841035	577.634783206818	575.630020019796	1177.040640557671	492.425330412899	580.769540171572	1227.660029448972	785.401617444407	371.376196283475	1177.510951724308	660.085127510511	289.580175819462	1284.562176883614	599.917388648762	341.209130613496	1306.527972686718	524.967842245430	330.644327408913	1270.067540915745	450.652854373521	320.504265126108	1164.693503712616	348.571426289893	272.741255984486	1222.271567181532	226.400251349341	317.333076803681	1147.567154587569	404.384079198032	586.168385756500	1074.104846878058	300.377975843676	645.447793281019	1115.636296165944	206.655019934587	579.018894013317	981.522315928260	42.720638120892	542.067153035375	1151.473563038422	97.284620415732	581.784243018829	1063.778271274045	37.152981685136	618.820479559598	1271.573429261972	46.434952811785	610.819095752560	1095.689677764955	73.110018322970	358.753019976313	1159.210342804778	68.624137795270	270.762117421040	1248.314917484394	126.226248923184	288.733990300306	1367.216932336362	70.706491694386	242.617970959064	1013.104304155584	1100.848260747426	237.533447386653	1026.858475292617	840.279596107888	221.219035468377	1213.328359107793	1094.502935643589	809.261240039136	1422.493150762072	952.402067674312	754.512643358225	
55	58.387428571429	942.400899459261	1009.320314322399	529.093597144913	1111.012001451505	1441.074991544008	346.991013933616	1230.164529417505	1366.584962589142	493.580943236582	1168.735211017710	1434.748294177781	678.663337632437	1109.670549929772	1498.355059871040	505.356601711185	1179.503475121188	943.130684478892	626.886148622819	1144.382977946792	969.395062074564	355.209851727966	1199.563154447424	737.934134883582	594.705321069794	1111.762374132728	633.026193306253	657.664276260545	1180.690265481431	576.960799782188	575.063504909973	1173.565686888184	491.900012601972	580.248649971051	1224.718014265476	784.377368048197	371.511688772873	1174.614511457958	659.659380593686	289.259781333523	1280.837790195200	598.962954960294	342.324807240607	1303.907433179812	526.172401603490	331.651026768563	1271.057808385137	452.393513910520	320.565348192236	1172.400781063325	344.659629479930	271.168837290550	1236.881585939477	225.605320293581	315.554191085415	1143.752795935305	403.899704965853	585.715533326313	1070.326844382105	300.134808478783	645.387199676818	1110.998842185108	206.296892282958	578.648228762513	976.192545230201	42.711325031274	542.109845038680	1146.103032287454	97.125239236067	581.636955720438	1058.426683413412	37.169126402504	618.844566402407	1266.236030811559	46.256151418255	610.856893798168	1119.224542974439	65.314358280060	355.530568723047	1183.812814274658	64.082559679131	268.074178596252	1269.643784240451	126.281613722025	286.648006170198	1391.742068734711	76.901520224475	241.722929764796	1007.009513197535	1101.708097195444	239.747881801165	1015.893101703748	840.831543280229	224.850206794638	1217.773387784621	1094.703680544052	808.867119032775	1430.841020339039	960.940144834875	749.982826106797	
56	58.400714285714	941.830941809370	1009.503239414070	530.158776760403	1110.562187202797	1440.601896242189	346.832928860063	1230.597039668192	1365.761207566964	492.549558426863	1170.820362689482	1434.265579421057	678.088854007962	1110.582439997709	1497.913599507496	505.160858011597	1179.398107341661	942.569504518461	626.301608412957	1142.662717172738	968.983888535986	354.843642484151	1197.957326375309	737.150224542544	593.935178535182	1110.046398236073	632.624683553412	657.493914887122	1177.847023065199	576.280299549889	574.332000621791	1170.311881069556	491.335161171198	579.586945800321	1221.621124926485	783.090510263428	371.603656481989	1171.543079876934	659.069445489398	288.828604061872	1276.898166941749	597.742845156055	343.377724372040	1300.952420558853	527.098117888730	332.682650274842	1271.602624804359	454.046298220259	320.759206147899	1179.735263196799	341.168809058556	269.799137337852	1250.612483636677	225.544546426314	314.264130641583	1140.108472504729	403.361160530292	585.143597505732	1066.707530087416	299.879656936082	645.280681528145	1106.420322459842	205.903876166211	578.220341681043	970.856863636673	42.702866679311	542.148771117307	1140.723385140372	96.954060787207	581.464845930618	1053.071728848412	37.186510290798	618.867260660111	1260.897907190768	46.069004637261	610.882015130814	1141.731824325148	59.114995915847	352.889227817730	1207.442485736048	60.726538611667	266.125669615964	1289.913462070877	127.202509600094	285.259746310559	1414.884175917173	83.653612605217	241.964481570319	1001.363818223801	1102.425450661903	241.945432754679	1005.695517966774	841.346751871227	228.371448758324	1221.883773903960	1094.739661302021	808.076821269267	1438.448974048519	969.388584437635	745.187356306605	
